<svg id="visual" viewBox="0 0 900 100" width="900" height="100" xmlns="http://www.w3.org/2000/svg" xmlns:xlink="http://www.w3.org/1999/xlink" version="1.1"><rect x="0" y="0" width="900" height="100" fill="#021f19"></rect><path d="M0 52L7.8 53.5C15.7 55 31.3 58 47.2 59.8C63 61.7 79 62.3 94.8 61.3C110.7 60.3 126.3 57.7 142 57.7C157.7 57.7 173.3 60.3 189.2 63C205 65.7 221 68.3 236.8 67.7C252.7 67 268.3 63 284.2 59.3C300 55.7 316 52.3 331.8 51.3C347.7 50.3 363.3 51.7 379 55.3C394.7 59 410.3 65 426.2 66.2C442 67.3 458 63.7 473.8 62.7C489.7 61.7 505.3 63.3 521 64.7C536.7 66 552.3 67 568.2 63.8C584 60.7 600 53.3 615.8 50.8C631.7 48.3 647.3 50.7 663.2 53.5C679 56.3 695 59.7 710.8 63C726.7 66.3 742.3 69.7 758 68.8C773.7 68 789.3 63 805.2 58.8C821 54.7 837 51.3 852.8 53.8C868.7 56.3 884.3 64.7 892.2 68.8L900 73L900 101L892.2 101C884.3 101 868.7 101 852.8 101C837 101 821 101 805.2 101C789.3 101 773.7 101 758 101C742.3 101 726.7 101 710.8 101C695 101 679 101 663.2 101C647.3 101 631.7 101 615.8 101C600 101 584 101 568.2 101C552.3 101 536.7 101 521 101C505.3 101 489.7 101 473.8 101C458 101 442 101 426.2 101C410.3 101 394.7 101 379 101C363.3 101 347.7 101 331.8 101C316 101 300 101 284.2 101C268.3 101 252.7 101 236.8 101C221 101 205 101 189.2 101C173.3 101 157.7 101 142 101C126.3 101 110.7 101 94.8 101C79 101 63 101 47.2 101C31.3 101 15.7 101 7.8 101L0 101Z" fill="#402927"></path><path d="M0 78L7.8 75.5C15.7 73 31.3 68 47.2 66.2C63 64.3 79 65.7 94.8 67C110.7 68.3 126.3 69.7 142 68C157.7 66.3 173.3 61.7 189.2 59.8C205 58 221 59 236.8 61.5C252.7 64 268.3 68 284.2 69.7C300 71.3 316 70.7 331.8 70.7C347.7 70.7 363.3 71.3 379 69.5C394.7 67.7 410.3 63.3 426.2 62.8C442 62.3 458 65.7 473.8 68C489.7 70.3 505.3 71.7 521 69.5C536.7 67.3 552.3 61.7 568.2 60.5C584 59.3 600 62.7 615.8 63.5C631.7 64.3 647.3 62.7 663.2 63.2C679 63.7 695 66.3 710.8 66.5C726.7 66.7 742.3 64.3 758 62.5C773.7 60.7 789.3 59.3 805.2 60.7C821 62 837 66 852.8 65.7C868.7 65.3 884.3 60.7 892.2 58.3L900 56L900 101L892.2 101C884.3 101 868.7 101 852.8 101C837 101 821 101 805.2 101C789.3 101 773.7 101 758 101C742.3 101 726.7 101 710.8 101C695 101 679 101 663.2 101C647.3 101 631.7 101 615.8 101C600 101 584 101 568.2 101C552.3 101 536.7 101 521 101C505.3 101 489.7 101 473.8 101C458 101 442 101 426.2 101C410.3 101 394.7 101 379 101C363.3 101 347.7 101 331.8 101C316 101 300 101 284.2 101C268.3 101 252.7 101 236.8 101C221 101 205 101 189.2 101C173.3 101 157.7 101 142 101C126.3 101 110.7 101 94.8 101C79 101 63 101 47.2 101C31.3 101 15.7 101 7.8 101L0 101Z" fill="#372122"></path><path d="M0 81L7.8 79.3C15.7 77.7 31.3 74.3 47.2 72.7C63 71 79 71 94.8 71.3C110.7 71.7 126.3 72.3 142 71.2C157.7 70 173.3 67 189.2 66.7C205 66.3 221 68.7 236.8 70.2C252.7 71.7 268.3 72.3 284.2 73.7C300 75 316 77 331.8 78.5C347.7 80 363.3 81 379 80C394.7 79 410.3 76 426.2 74.8C442 73.7 458 74.3 473.8 72.8C489.7 71.3 505.3 67.7 521 69.2C536.7 70.7 552.3 77.3 568.2 80C584 82.7 600 81.3 615.8 78C631.7 74.7 647.3 69.3 663.2 68.3C679 67.3 695 70.7 710.8 72.3C726.7 74 742.3 74 758 72.3C773.7 70.7 789.3 67.3 805.2 67.2C821 67 837 70 852.8 72.8C868.7 75.7 884.3 78.3 892.2 79.7L900 81L900 101L892.2 101C884.3 101 868.7 101 852.8 101C837 101 821 101 805.2 101C789.3 101 773.7 101 758 101C742.3 101 726.7 101 710.8 101C695 101 679 101 663.2 101C647.3 101 631.7 101 615.8 101C600 101 584 101 568.2 101C552.3 101 536.7 101 521 101C505.3 101 489.7 101 473.8 101C458 101 442 101 426.2 101C410.3 101 394.7 101 379 101C363.3 101 347.7 101 331.8 101C316 101 300 101 284.2 101C268.3 101 252.7 101 236.8 101C221 101 205 101 189.2 101C173.3 101 157.7 101 142 101C126.3 101 110.7 101 94.8 101C79 101 63 101 47.2 101C31.3 101 15.7 101 7.8 101L0 101Z" fill="#2e1a1d"></path><path d="M0 89L7.8 88.7C15.7 88.3 31.3 87.7 47.2 86.2C63 84.7 79 82.3 94.8 82.2C110.7 82 126.3 84 142 83.5C157.7 83 173.3 80 189.2 80.3C205 80.7 221 84.3 236.8 85.7C252.7 87 268.3 86 284.2 85.2C300 84.3 316 83.7 331.8 82.7C347.7 81.7 363.3 80.3 379 80.8C394.7 81.3 410.3 83.7 426.2 85.2C442 86.7 458 87.3 473.8 87.3C489.7 87.3 505.3 86.7 521 85.5C536.7 84.3 552.3 82.7 568.2 82.8C584 83 600 85 615.8 84.8C631.7 84.7 647.3 82.3 663.2 80.7C679 79 695 78 710.8 78.7C726.7 79.3 742.3 81.7 758 83.7C773.7 85.7 789.3 87.3 805.2 86C821 84.7 837 80.3 852.8 78.7C868.7 77 884.3 78 892.2 78.5L900 79L900 101L892.2 101C884.3 101 868.7 101 852.8 101C837 101 821 101 805.2 101C789.3 101 773.7 101 758 101C742.3 101 726.7 101 710.8 101C695 101 679 101 663.2 101C647.3 101 631.7 101 615.8 101C600 101 584 101 568.2 101C552.3 101 536.7 101 521 101C505.3 101 489.7 101 473.8 101C458 101 442 101 426.2 101C410.3 101 394.7 101 379 101C363.3 101 347.7 101 331.8 101C316 101 300 101 284.2 101C268.3 101 252.7 101 236.8 101C221 101 205 101 189.2 101C173.3 101 157.7 101 142 101C126.3 101 110.7 101 94.8 101C79 101 63 101 47.2 101C31.3 101 15.7 101 7.8 101L0 101Z" fill="#251318"></path><path d="M0 83L7.8 84.3C15.7 85.7 31.3 88.3 47.2 89C63 89.7 79 88.3 94.8 88.3C110.7 88.3 126.3 89.7 142 89.2C157.7 88.7 173.3 86.3 189.2 86.7C205 87 221 90 236.8 91.2C252.7 92.3 268.3 91.7 284.2 90.5C300 89.3 316 87.7 331.8 87.7C347.7 87.7 363.3 89.3 379 89.2C394.7 89 410.3 87 426.2 86C442 85 458 85 473.8 85.5C489.7 86 505.3 87 521 87.5C536.7 88 552.3 88 568.2 89.2C584 90.3 600 92.7 615.8 93C631.7 93.3 647.3 91.7 663.2 91.5C679 91.3 695 92.7 710.8 91.7C726.7 90.7 742.3 87.3 758 85.8C773.7 84.3 789.3 84.7 805.2 84.8C821 85 837 85 852.8 85.5C868.7 86 884.3 87 892.2 87.5L900 88L900 101L892.2 101C884.3 101 868.7 101 852.8 101C837 101 821 101 805.2 101C789.3 101 773.7 101 758 101C742.3 101 726.7 101 710.8 101C695 101 679 101 663.2 101C647.3 101 631.7 101 615.8 101C600 101 584 101 568.2 101C552.3 101 536.7 101 521 101C505.3 101 489.7 101 473.8 101C458 101 442 101 426.2 101C410.3 101 394.7 101 379 101C363.3 101 347.7 101 331.8 101C316 101 300 101 284.2 101C268.3 101 252.7 101 236.8 101C221 101 205 101 189.2 101C173.3 101 157.7 101 142 101C126.3 101 110.7 101 94.8 101C79 101 63 101 47.2 101C31.3 101 15.7 101 7.8 101L0 101Z" fill="#1e0a12"></path></svg>