<svg id="visual" viewBox="0 0 960 100" width="960" height="100" xmlns="http://www.w3.org/2000/svg" xmlns:xlink="http://www.w3.org/1999/xlink" version="1.1"><rect x="0" y="0" width="960" height="100" fill="#513100"></rect><path d="M0 46L8.5 44.5C17 43 34 40 50.8 38.2C67.7 36.3 84.3 35.7 101.2 36.7C118 37.7 135 40.3 151.8 40.3C168.7 40.3 185.3 37.7 202.2 35C219 32.3 236 29.7 252.8 30.3C269.7 31 286.3 35 303.2 38.7C320 42.3 337 45.7 353.8 46.7C370.7 47.7 387.3 46.3 404.2 42.7C421 39 438 33 454.8 31.8C471.7 30.7 488.3 34.3 505.2 35.3C522 36.3 539 34.7 555.8 33.3C572.7 32 589.3 31 606.2 34.2C623 37.3 640 44.7 656.8 47.2C673.7 49.7 690.3 47.3 707.2 44.5C724 41.7 741 38.3 757.8 35C774.7 31.7 791.3 28.3 808.2 29.2C825 30 842 35 858.8 39.2C875.7 43.3 892.3 46.7 909.2 44.2C926 41.7 943 33.3 951.5 29.2L960 25L960 0L951.5 0C943 0 926 0 909.2 0C892.3 0 875.7 0 858.8 0C842 0 825 0 808.2 0C791.3 0 774.7 0 757.8 0C741 0 724 0 707.2 0C690.3 0 673.7 0 656.8 0C640 0 623 0 606.2 0C589.3 0 572.7 0 555.8 0C539 0 522 0 505.2 0C488.3 0 471.7 0 454.8 0C438 0 421 0 404.2 0C387.3 0 370.7 0 353.8 0C337 0 320 0 303.2 0C286.3 0 269.7 0 252.8 0C236 0 219 0 202.2 0C185.3 0 168.7 0 151.8 0C135 0 118 0 101.2 0C84.3 0 67.7 0 50.8 0C34 0 17 0 8.5 0L0 0Z" fill="#513100"></path><path d="M0 20L8.5 22.5C17 25 34 30 50.8 31.8C67.7 33.7 84.3 32.3 101.2 31C118 29.7 135 28.3 151.8 30C168.7 31.7 185.3 36.3 202.2 38.2C219 40 236 39 252.8 36.5C269.7 34 286.3 30 303.2 28.3C320 26.7 337 27.3 353.8 27.3C370.7 27.3 387.3 26.7 404.2 28.5C421 30.3 438 34.7 454.8 35.2C471.7 35.7 488.3 32.3 505.2 30C522 27.7 539 26.3 555.8 28.5C572.7 30.7 589.3 36.3 606.2 37.5C623 38.7 640 35.3 656.8 34.5C673.7 33.7 690.3 35.3 707.2 34.8C724 34.3 741 31.7 757.8 31.5C774.7 31.3 791.3 33.7 808.2 35.5C825 37.3 842 38.7 858.8 37.3C875.7 36 892.3 32 909.2 32.3C926 32.7 943 37.3 951.5 39.7L960 42L960 0L951.5 0C943 0 926 0 909.2 0C892.3 0 875.7 0 858.8 0C842 0 825 0 808.2 0C791.3 0 774.7 0 757.8 0C741 0 724 0 707.2 0C690.3 0 673.7 0 656.8 0C640 0 623 0 606.2 0C589.3 0 572.7 0 555.8 0C539 0 522 0 505.2 0C488.3 0 471.7 0 454.8 0C438 0 421 0 404.2 0C387.3 0 370.7 0 353.8 0C337 0 320 0 303.2 0C286.3 0 269.7 0 252.8 0C236 0 219 0 202.2 0C185.3 0 168.7 0 151.8 0C135 0 118 0 101.2 0C84.3 0 67.7 0 50.8 0C34 0 17 0 8.5 0L0 0Z" fill="#4b230c"></path><path d="M0 17L8.5 18.7C17 20.3 34 23.7 50.8 25.3C67.7 27 84.3 27 101.2 26.7C118 26.3 135 25.7 151.8 26.8C168.7 28 185.3 31 202.2 31.3C219 31.7 236 29.3 252.8 27.8C269.7 26.3 286.3 25.7 303.2 24.3C320 23 337 21 353.8 19.5C370.7 18 387.3 17 404.2 18C421 19 438 22 454.8 23.2C471.7 24.3 488.3 23.7 505.2 25.2C522 26.7 539 30.3 555.8 28.8C572.7 27.3 589.3 20.7 606.2 18C623 15.3 640 16.7 656.8 20C673.7 23.3 690.3 28.7 707.2 29.7C724 30.7 741 27.3 757.8 25.7C774.7 24 791.3 24 808.2 25.7C825 27.3 842 30.7 858.8 30.8C875.7 31 892.3 28 909.2 25.2C926 22.3 943 19.7 951.5 18.3L960 17L960 0L951.5 0C943 0 926 0 909.2 0C892.3 0 875.7 0 858.8 0C842 0 825 0 808.2 0C791.3 0 774.7 0 757.8 0C741 0 724 0 707.2 0C690.3 0 673.7 0 656.8 0C640 0 623 0 606.2 0C589.3 0 572.7 0 555.8 0C539 0 522 0 505.2 0C488.3 0 471.7 0 454.8 0C438 0 421 0 404.2 0C387.3 0 370.7 0 353.8 0C337 0 320 0 303.2 0C286.3 0 269.7 0 252.8 0C236 0 219 0 202.2 0C185.3 0 168.7 0 151.8 0C135 0 118 0 101.2 0C84.3 0 67.7 0 50.8 0C34 0 17 0 8.5 0L0 0Z" fill="#3f1813"></path><path d="M0 9L8.5 9.3C17 9.7 34 10.3 50.8 11.8C67.7 13.3 84.3 15.7 101.2 15.8C118 16 135 14 151.8 14.5C168.7 15 185.3 18 202.2 17.7C219 17.3 236 13.7 252.8 12.3C269.7 11 286.3 12 303.2 12.8C320 13.7 337 14.3 353.8 15.3C370.7 16.3 387.3 17.7 404.2 17.2C421 16.7 438 14.3 454.8 12.8C471.7 11.3 488.3 10.7 505.2 10.7C522 10.7 539 11.3 555.8 12.5C572.7 13.7 589.3 15.3 606.2 15.2C623 15 640 13 656.8 13.2C673.7 13.3 690.3 15.7 707.2 17.3C724 19 741 20 757.8 19.3C774.7 18.7 791.3 16.3 808.2 14.3C825 12.3 842 10.7 858.8 12C875.7 13.3 892.3 17.7 909.2 19.3C926 21 943 20 951.5 19.5L960 19L960 0L951.5 0C943 0 926 0 909.2 0C892.3 0 875.7 0 858.8 0C842 0 825 0 808.2 0C791.3 0 774.7 0 757.8 0C741 0 724 0 707.2 0C690.3 0 673.7 0 656.8 0C640 0 623 0 606.2 0C589.3 0 572.7 0 555.8 0C539 0 522 0 505.2 0C488.3 0 471.7 0 454.8 0C438 0 421 0 404.2 0C387.3 0 370.7 0 353.8 0C337 0 320 0 303.2 0C286.3 0 269.7 0 252.8 0C236 0 219 0 202.2 0C185.3 0 168.7 0 151.8 0C135 0 118 0 101.2 0C84.3 0 67.7 0 50.8 0C34 0 17 0 8.5 0L0 0Z" fill="#2f1115"></path><path d="M0 15L8.5 13.7C17 12.3 34 9.7 50.8 9C67.7 8.3 84.3 9.7 101.2 9.7C118 9.7 135 8.3 151.8 8.8C168.7 9.3 185.3 11.7 202.2 11.3C219 11 236 8 252.8 6.8C269.7 5.7 286.3 6.3 303.2 7.5C320 8.7 337 10.3 353.8 10.3C370.7 10.3 387.3 8.7 404.2 8.8C421 9 438 11 454.8 12C471.7 13 488.3 13 505.2 12.5C522 12 539 11 555.8 10.5C572.7 10 589.3 10 606.2 8.8C623 7.7 640 5.3 656.8 5C673.7 4.7 690.3 6.3 707.2 6.5C724 6.7 741 5.3 757.8 6.3C774.7 7.3 791.3 10.7 808.2 12.2C825 13.7 842 13.3 858.8 13.2C875.7 13 892.3 13 909.2 12.5C926 12 943 11 951.5 10.5L960 10L960 0L951.5 0C943 0 926 0 909.2 0C892.3 0 875.7 0 858.8 0C842 0 825 0 808.2 0C791.3 0 774.7 0 757.8 0C741 0 724 0 707.2 0C690.3 0 673.7 0 656.8 0C640 0 623 0 606.2 0C589.3 0 572.7 0 555.8 0C539 0 522 0 505.2 0C488.3 0 471.7 0 454.8 0C438 0 421 0 404.2 0C387.3 0 370.7 0 353.8 0C337 0 320 0 303.2 0C286.3 0 269.7 0 252.8 0C236 0 219 0 202.2 0C185.3 0 168.7 0 151.8 0C135 0 118 0 101.2 0C84.3 0 67.7 0 50.8 0C34 0 17 0 8.5 0L0 0Z" fill="#1e0a12"></path></svg>